<?xml version="1.0" encoding="UTF-8"?>
<svg xmlns="http://www.w3.org/2000/svg" xmlns:xlink="http://www.w3.org/1999/xlink" viewBox="0 0 64 64" width="64px" height="64px">
    <g id="surface181039131">
    <path style=" stroke:none;fill-rule:nonzero;fill:#6610F2;fill-opacity:1;" d="M 54.246094 7.109375 C 53.839844 6.65625 53.261719 6.398438 52.65625 6.398438 L 11.34375 6.398438 C 10.738281 6.398438 10.160156 6.65625 9.753906 7.109375 C 9.347656 7.5625 9.15625 8.167969 9.222656 8.769531 L 13.921875 51.058594 C 14.015625 51.917969 14.621094 52.636719 15.453125 52.871094 L 31.410156 57.429688 C 31.601562 57.488281 31.800781 57.515625 31.996094 57.515625 C 32.195312 57.515625 32.390625 57.488281 32.585938 57.429688 L 48.542969 52.871094 C 49.375 52.636719 49.980469 51.917969 50.074219 51.058594 L 54.777344 8.769531 C 54.84375 8.167969 54.652344 7.5625 54.246094 7.109375 Z M 43.765625 27.890625 L 42.816406 43.433594 L 32.066406 46.945312 L 21.320312 43.433594 L 20.914062 36 L 26.351562 36 L 26.488281 39.378906 L 32.066406 41.269531 L 37.648438 39.378906 L 38.054688 33.300781 L 26.082031 33.300781 L 25.8125 27.894531 L 38.328125 27.894531 L 38.734375 22.488281 L 19.960938 22.488281 L 19.550781 17.078125 L 44.449219 17.078125 Z M 43.765625 27.890625 "/>
    </g>
</svg>